<?xml version="1.0" encoding="UTF-8" standalone="no"?>
<svg width="77px" height="96px" viewBox="0 0 77 96" version="1.1" xmlns="http://www.w3.org/2000/svg" xmlns:xlink="http://www.w3.org/1999/xlink">
    <!-- Generator: Sketch 3.7.2 (28276) - http://www.bohemiancoding.com/sketch -->
    <title>Gold Wordmark</title>
    <desc>Created with Sketch.</desc>
    <defs></defs>
    <g id="Page-1" stroke="none" stroke-width="1" fill="none" fill-rule="evenodd">
        <g id="landmark" transform="translate(-757.000000, -222.000000)" fill="#F0A830">
            <g id="Page-1">
                <g id="Gold-Wordmark" transform="translate(757.000000, 222.000000)">
                    <polyline id="Fill-29" points="34.547 72.209 34.547 23.808 25.796 15.057 25.796 80.96 34.547 72.209"></polyline>
                    <path d="M36.379,21.964 L47.61,21.964 C47.61,17.131 43.692,13.214 38.859,13.214 L27.628,13.214 L36.379,21.964" id="Fill-30"></path>
                    <path d="M20.186,13.214 L9.187,13.214 C4.354,13.214 0.436,17.131 0.436,21.964 L11.435,21.964 L20.186,13.214" id="Fill-31"></path>
                    <path d="M38.807,9.423 L9.187,9.423 C4.354,9.423 0.436,5.506 0.436,0.673 L47.558,0.673 C47.558,5.506 43.64,9.423 38.807,9.423" id="Fill-32"></path>
                    <polyline id="Fill-33" points="22.006 80.949 22.006 15.068 13.255 23.819 13.255 72.198 22.006 80.949"></polyline>
                    <path d="M11.418,74.036 L0.436,74.036 C0.436,78.868 4.354,82.786 9.187,82.786 L20.169,82.786 L11.418,74.036" id="Fill-34"></path>
                    <polyline id="Fill-35" points="53.621 74.036 36.396 74.036 27.645 82.786 62.372 82.786 53.621 74.036"></polyline>
                    <path d="M64.196,80.935 L64.196,67.738 C64.196,62.905 60.277,58.987 55.444,58.987 L55.444,72.184 L64.196,80.935" id="Fill-36"></path>
                    <path d="M66.162,86.577 L9.187,86.577 C4.354,86.577 0.436,90.494 0.436,95.327 L74.913,95.327 L66.162,86.577" id="Fill-37"></path>
                    <path d="M76.685,93.424 L76.685,58.987 C71.852,58.987 67.934,62.905 67.934,67.738 L67.934,84.673 L76.685,93.424" id="Fill-38"></path>
                </g>
            </g>
        </g>
    </g>
</svg>