<?xml version="1.0" encoding="UTF-8" standalone="yes"?><svg xmlns="http://www.w3.org/2000/svg" version="1.2" width="1518.000000pt" height="1518.000000pt" viewBox="0 0 1518.000000 1518.000000" preserveAspectRatio="xMidYMid meet" baseProfile="tiny-ps"><title>bimi-svg-tiny-12-ps</title><g transform="translate(0.000000,1518.000000) scale(0.100000,-0.100000)" fill="#000000" stroke="none"><path d="M0 7590 l0 -7590 7590 0 7590 0 0 7590 0 7590 -7590 0 -7590 0 0
-7590z m8707 5823 c-34 -509 -450 -934 -970 -992 -134 -15 -3800 -15 -3934 0
-316 35 -604 206 -783 465 -105 153 -175 346 -187 522 l-6 92 2943 0 2943 0
-6 -87z m-3957 -2018 l-545 -545 -689 0 -689 0 6 93 c34 500 448 926 959 986
40 5 395 9 788 10 l715 1 -545 -545z m2997 534 c425 -47 786 -340 918 -746 27
-82 55 -232 55 -295 l0 -38 -703 0 -702 0 -545 545 -545 545 713 0 c439 0 750
-4 809 -11z m-2227 -4341 l0 -4113 -545 545 -545 545 0 3025 0 3025 542 542
c299 299 544 543 545 543 2 0 3 -1851 3 -4112z m1570 2 l0 -3025 -545 -545
-545 -545 0 4115 0 4115 545 -545 545 -545 0 -3025z m2882 -1410 c352 -91 638
-354 757 -694 61 -173 61 -173 61 -1135 l0 -876 -545 545 -545 545 0 821 c0
451 2 823 5 825 9 10 190 -11 267 -31z m2378 -2112 l0 -2153 -545 545 -545
545 0 1075 c0 633 4 1110 10 1160 15 133 46 235 110 365 176 359 510 580 920
608 25 2 46 4 48 5 1 1 2 -967 2 -2150z m-7608 -275 c296 -296 538 -542 538
-546 0 -4 -339 -6 -752 -4 -819 4 -799 2 -972 63 -399 139 -695 520 -723 932
l-6 92 689 0 689 0 537 -537z m5278 -8 l545 -545 -2170 0 -2170 0 545 545 545
545 1080 0 1080 0 545 -545z m1560 -1560 l545 -545 -4649 0 -4649 0 6 93 c34
497 452 928 957 986 41 5 1688 9 3660 10 l3585 1 545 -545z"></path></g></svg>