<?xml version="1.0" encoding="UTF-8" standalone="yes"?>
<svg version="1.2" baseProfile="tiny-ps" width="400" height="400" fill="none" xmlns="http://www.w3.org/2000/svg">
  <title>Landmark Church</title>
  <path fill="#F5F5F5" d="M0 0h400v400H0z"/>
  <path fill="#1F343F" d="M0 0h400v400H0z"/>
  <path fill-rule="evenodd" d="M188.398 271.362V129.688l-25.685-25.615v192.904l25.685-25.615zm5.377-147.072h32.963c0-14.146-11.499-25.612-25.684-25.612H168.09l25.685 25.612zm-47.528-25.612h-32.283c-14.185 0-25.684 11.466-25.684 25.612h32.282l25.685-25.612zm54.654-11.096h-86.937c-14.185 0-25.684-11.465-25.684-25.612h138.306c0 14.147-11.5 25.612-25.685 25.612zm-49.312 209.362V104.105l-25.685 25.615v141.61l25.685 25.614zm-31.077-20.234H88.28c0 14.143 11.5 25.612 25.684 25.612h32.233l-25.685-25.612zm123.869 0h-50.556l-25.685 25.612h101.926l-25.685-25.612zm31.038 20.194v-38.629c0-14.147-11.502-25.615-25.687-25.615v38.629l25.687 25.615zm5.771 16.514H113.964c-14.185 0-25.684 11.466-25.684 25.612h218.594l-25.684-25.612zm30.885 20.042v-100.8c-14.185 0-25.684 11.468-25.684 25.615v49.57l25.684 25.615z" fill="#F0A830"/>
</svg>