<?xml version="1.0" encoding="UTF-8" standalone="yes"?>
<svg width="200px" height="200px" viewBox="0 0 200 200" version="1.2" baseProfile="tiny-ps" xmlns="http://www.w3.org/2000/svg">
  <title>bimi-svg-tiny-12-ps</title>
  <g id="Page-1" stroke="none" stroke-width="1" fill="none" fill-rule="evenodd">
    <g id="Wordmark" transform="translate(-63, -20)" fill-rule="nonzero">
      <polyline id="path26" fill="#24384B" transform="translate(163, 120) scale(-1, 1) rotate(-180) translate(-163, -120)" points="263 20 63 20 63 220 263 220 263 20"/>
      <polyline id="path32" fill="#F9A610" transform="translate(136.7593, 120.0112) scale(-1, 1) rotate(-180) translate(-136.7593, -120.0112)" points="142.59333 76.0906648 142.59333 163.931729 130.92533 152.26373 130.92533 87.7583978 142.59333 76.0906648"/>
      <polyline id="path34" fill="#F9A610" transform="translate(173.2633, 160.5479) scale(-1, 1) rotate(-180) translate(-173.2633, -160.5479)" points="184.746662 166.381196 161.779996 166.381196 150.111996 154.714529 196.414662 154.714529 184.746662 166.381196"/>
      <polygon id="path28" fill="#F9A610" transform="translate(153.4807, 120.0115) scale(-1, 1) rotate(-180) translate(-153.4807, -120.0115)" points="159.314663 152.27893 147.646663 163.946929 147.646663 76.0759981 159.314663 87.7442645"/>
      <path d="M161.757329,73.6186648 L176.731996,73.6186648 C176.731996,80.0626647 171.507996,85.2853312 165.063996,85.2853312 L150.08933,85.2853312 L161.757329,73.6186648" id="path29" fill="#F9A610" transform="translate(163.4107, 79.452) scale(-1, 1) rotate(-180) translate(-163.4107, -79.452)"/>
      <path d="M140.166663,85.2853312 L125.50133,85.2853312 C119.05733,85.2853312 113.833331,80.0626647 113.833331,73.6186648 L128.498663,73.6186648 L140.166663,85.2853312" id="path30" fill="#F9A610" transform="translate(127, 79.452) scale(-1, 1) rotate(-180) translate(-127, -79.452)"/>
      <path d="M164.994663,56.8973319 L125.50133,56.8973319 C119.05733,56.8973319 113.833331,62.1199984 113.833331,68.5639983 L113.833331,68.5639983 L176.662662,68.5639983 L176.662662,68.5639983 C176.662662,62.1199984 171.438662,56.8973319 164.994663,56.8973319" id="path31" fill="#F9A610" transform="translate(145.248, 62.7307) scale(-1, 1) rotate(-180) translate(-145.248, -62.7307)"/>
      <path d="M128.475997,166.381196 L113.833331,166.381196 C113.833331,159.938396 119.05733,154.714529 125.50133,154.714529 L140.143997,154.714529 L128.475997,166.381196" id="path33" fill="#F9A610" transform="translate(126.9887, 160.5479) scale(-1, 1) rotate(-180) translate(-126.9887, -160.5479)"/>
      <path d="M198.846662,134.649463 L198.846662,152.245863 C198.846662,158.689596 193.621329,163.913596 187.177329,163.913596 L187.177329,146.31773 L198.846662,134.649463" id="path35" fill="#F9A610" transform="translate(193.012, 149.2815) scale(-1, 1) rotate(-180) translate(-193.012, -149.2815)"/>
      <path d="M201.467995,183.102662 L125.50133,183.102662 C119.05733,183.102662 113.833331,177.879862 113.833331,171.435996 L213.135995,171.435996 L201.467995,183.102662" id="path36" fill="#F9A610" transform="translate(163.4847, 177.2693) scale(-1, 1) rotate(-180) translate(-163.4847, -177.2693)"/>
      <path d="M215.498661,134.649463 L215.498661,180.565062 C209.054661,180.565062 203.830662,175.341062 203.830662,168.897329 L203.830662,146.317196 L215.498661,134.649463" id="path37" fill="#F9A610" transform="translate(209.6647, 157.6073) scale(-1, 1) rotate(-180) translate(-209.6647, -157.6073)"/>
    </g>
  </g>
</svg>