<?xml version="1.0" encoding="UTF-8" standalone="no"?>
<svg width="319px" height="76px" viewBox="0 0 319 76" version="1.1" xmlns="http://www.w3.org/2000/svg" xmlns:xlink="http://www.w3.org/1999/xlink">
    <!-- Generator: Sketch 3.7.2 (28276) - http://www.bohemiancoding.com/sketch -->
    <title>Landscape</title>
    <desc>Created with Sketch.</desc>
    <defs></defs>
    <g id="Page-1" stroke="none" stroke-width="1" fill="none" fill-rule="evenodd">
        <g id="landmark" transform="translate(-1032.000000, -142.000000)">
            <g id="Page-1">
                <g id="Landscape" transform="translate(1032.000000, 142.000000)">
                    <polyline id="Fill-73" fill="#F0A830" points="27.74 57.156 27.74 18.857 20.82 11.933 20.82 64.08 27.74 57.156"></polyline>
                    <path d="M29.19,17.399 L38.08,17.399 C38.08,13.574 34.98,10.474 31.16,10.474 L22.27,10.474 L29.19,17.399" id="Fill-74" fill="#F0A830"></path>
                    <path d="M16.38,10.474 L7.68,10.474 C3.85,10.474 0.75,13.574 0.75,17.399 L9.46,17.399 L16.38,10.474" id="Fill-75" fill="#F0A830"></path>
                    <path d="M31.12,7.475 L7.68,7.475 C3.85,7.475 0.75,4.375 0.75,0.551 L38.04,0.551 C38.04,4.375 34.94,7.475 31.12,7.475" id="Fill-76" fill="#F0A830"></path>
                    <polyline id="Fill-77" fill="#F0A830" points="17.82 64.072 17.82 11.942 10.9 18.866 10.9 57.147 17.82 64.072"></polyline>
                    <path d="M9.44,58.601 L0.75,58.601 C0.75,62.426 3.85,65.526 7.68,65.526 L16.37,65.526 L9.44,58.601" id="Fill-78" fill="#F0A830"></path>
                    <polyline id="Fill-79" fill="#F0A830" points="42.84 58.601 29.21 58.601 22.28 65.526 49.76 65.526 42.84 58.601"></polyline>
                    <path d="M51.21,64.061 L51.21,53.618 C51.21,49.794 48.1,46.693 44.28,46.693 L44.28,57.136 L51.21,64.061" id="Fill-80" fill="#F0A830"></path>
                    <path d="M52.76,68.525 L7.68,68.525 C3.85,68.525 0.75,71.625 0.75,75.449 L59.69,75.449 L52.76,68.525" id="Fill-81" fill="#F0A830"></path>
                    <path d="M61.09,73.943 L61.09,46.693 C57.26,46.693 54.16,49.794 54.16,53.618 L54.16,67.018 L61.09,73.943" id="Fill-82" fill="#F0A830"></path>
                    <polyline id="Fill-83" fill="#20343F" points="89.31 12.166 89.31 32.429 103.99 32.429 103.99 37.132 83.84 37.132 83.84 12.166 89.31 12.166"></polyline>
                    <path d="M118.34,27.535 L126.14,27.535 L122.35,18.703 L122.12,18.703 L118.34,27.535 L118.34,27.535 Z M120.02,12.166 L124.72,12.166 L136.31,37.132 L130.31,37.132 L128.01,31.856 L116.47,31.856 L114.21,37.132 L108.44,37.132 L120.02,12.166 L120.02,12.166 Z" id="Fill-84" fill="#20343F"></path>
                    <polyline id="Fill-85" fill="#20343F" points="163.75 12.166 163.75 37.132 159.01 37.132 146.32 21.685 146.28 21.685 146.28 37.132 140.77 37.132 140.77 12.166 145.48 12.166 158.21 27.65 158.25 27.65 158.25 12.166 163.75 12.166"></polyline>
                    <path d="M181.53,32.429 C184.39,32.429 185.58,31.779 186.88,30.632 C188.33,29.179 189.17,27.191 189.17,24.668 C189.17,22.297 188.45,20.309 187.07,18.894 C185.81,17.633 184.47,16.906 181.53,16.906 L175.45,16.906 L175.45,32.429 L181.53,32.429 L181.53,32.429 Z M169.98,37.132 L169.98,12.166 L181.72,12.166 C186.31,12.166 189.29,13.466 191.51,15.722 C193.69,17.977 194.87,21.112 194.87,24.63 C194.87,28.262 193.61,31.549 191.28,33.843 C189.14,35.87 186.42,37.132 181.72,37.132 L169.98,37.132 L169.98,37.132 Z" id="Fill-86" fill="#20343F"></path>
                    <polyline id="Fill-87" fill="#20343F" points="221.36 37.132 221.36 22.641 221.17 22.641 214.17 34.303 212.64 34.303 205.64 22.641 205.45 22.641 205.45 37.132 200.14 37.132 200.14 12.166 205.38 12.166 213.56 25.853 213.64 25.853 221.78 12.166 226.86 12.166 226.86 37.132 221.36 37.132"></polyline>
                    <path d="M241.22,27.535 L249.02,27.535 L245.23,18.703 L245,18.703 L241.22,27.535 L241.22,27.535 Z M242.9,12.166 L247.6,12.166 L259.19,37.132 L253.18,37.132 L250.89,31.856 L239.34,31.856 L237.09,37.132 L231.31,37.132 L242.9,12.166 L242.9,12.166 Z" id="Fill-88" fill="#20343F"></path>
                    <path d="M269.1,16.791 L269.1,23.33 L278.05,23.33 C279.96,23.33 281.53,21.954 281.53,20.041 C281.53,19.2 281.22,18.436 280.65,17.862 C279.77,16.906 278.66,16.791 277.67,16.791 L269.1,16.791 L269.1,16.791 Z M263.64,37.132 L263.64,12.166 L277.48,12.166 C281.03,12.166 283.36,13.197 284.97,14.88 C286.27,16.256 287.03,18.053 287.03,20.041 C287.03,23.253 285.05,25.739 281.99,27.077 L287.84,37.132 L281.57,37.132 L276.52,27.956 L269.1,27.956 L269.1,37.132 L263.64,37.132 L263.64,37.132 Z" id="Fill-89" fill="#20343F"></path>
                    <polyline id="Fill-90" fill="#20343F" points="298.68 23.023 310.11 12.166 317 12.166 306.6 21.915 318.87 37.132 311.95 37.132 302.7 25.509 298.68 29.294 298.68 37.132 293.18 37.132 293.18 12.166 298.68 12.166 298.68 23.023"></polyline>
                    <path d="M102.45,62.639 C102.2,62.725 101.86,62.835 101.41,62.969 C100.96,63.105 100.42,63.237 99.78,63.364 C99.14,63.492 98.41,63.602 97.58,63.695 C96.76,63.787 95.85,63.834 94.85,63.834 C92.9,63.834 91.23,63.635 89.85,63.237 C88.46,62.838 87.32,62.294 86.43,61.604 C85.54,60.914 84.89,60.093 84.47,59.139 C84.05,58.186 83.84,57.154 83.84,56.045 C83.84,54.935 84.05,53.904 84.47,52.951 C84.89,51.997 85.54,51.176 86.43,50.486 C87.32,49.796 88.46,49.252 89.85,48.853 C91.23,48.455 92.9,48.256 94.85,48.256 C95.85,48.256 96.76,48.303 97.58,48.395 C98.41,48.487 99.14,48.597 99.78,48.725 C100.42,48.853 100.96,48.985 101.41,49.12 C101.86,49.255 102.2,49.365 102.45,49.45 L101.72,52.332 C100.64,52.019 99.54,51.759 98.41,51.553 C97.29,51.347 96.1,51.244 94.85,51.244 C93.44,51.244 92.25,51.361 91.26,51.595 C90.28,51.831 89.48,52.161 88.86,52.588 C88.24,53.015 87.8,53.524 87.52,54.113 C87.24,54.704 87.1,55.348 87.1,56.045 C87.1,56.757 87.24,57.403 87.52,57.987 C87.8,58.57 88.24,59.075 88.86,59.502 C89.48,59.929 90.28,60.259 91.26,60.494 C92.25,60.729 93.44,60.846 94.85,60.846 C96.1,60.846 97.29,60.743 98.41,60.537 C99.54,60.331 100.64,60.071 101.72,59.758 L102.45,62.639" id="Fill-91" fill="#20343F"></path>
                    <polyline id="Fill-92" fill="#20343F" points="126.67 63.514 126.67 57.325 115.57 57.325 115.57 63.514 112.37 63.514 112.37 48.576 115.57 48.576 115.57 54.337 126.67 54.337 126.67 48.576 129.87 48.576 129.87 63.514 126.67 63.514"></polyline>
                    <path d="M153.77,48.576 L156.97,48.576 L156.97,57.539 C156.97,59.744 156.23,61.345 154.73,62.34 C153.24,63.336 151,63.834 148.01,63.834 C145.02,63.834 142.78,63.336 141.29,62.34 C139.8,61.345 139.05,59.744 139.05,57.539 L139.05,48.576 L142.25,48.576 L142.25,57.539 C142.25,58.236 142.4,58.798 142.69,59.224 C142.98,59.652 143.38,59.986 143.89,60.227 C144.41,60.469 145.01,60.633 145.72,60.719 C146.42,60.804 147.19,60.846 148.01,60.846 C148.84,60.846 149.6,60.804 150.31,60.719 C151.01,60.633 151.62,60.469 152.13,60.227 C152.64,59.986 153.04,59.652 153.34,59.224 C153.63,58.798 153.77,58.236 153.77,57.539 L153.77,48.576" id="Fill-93" fill="#20343F"></path>
                    <path d="M178.02,55.191 C178.72,55.191 179.29,55.056 179.74,54.785 C180.19,54.515 180.41,54.046 180.41,53.377 C180.41,52.708 180.19,52.24 179.74,51.969 C179.29,51.699 178.72,51.563 178.02,51.563 L169.27,51.563 L169.27,55.191 L178.02,55.191 L178.02,55.191 Z M166.07,48.576 L177.91,48.576 C178.71,48.576 179.46,48.658 180.16,48.821 C180.87,48.985 181.48,49.255 182,49.632 C182.52,50.01 182.93,50.504 183.23,51.115 C183.53,51.727 183.68,52.481 183.68,53.377 C183.68,54.259 183.53,54.999 183.23,55.596 C182.93,56.194 182.52,56.678 182,57.047 C181.48,57.418 180.87,57.681 180.18,57.838 C179.48,57.994 178.74,58.072 177.96,58.072 L177.76,58.072 L184.32,63.514 L179.36,63.514 L173.26,58.179 L169.27,58.179 L169.27,63.514 L166.07,63.514 L166.07,48.576 L166.07,48.576 Z" id="Fill-94" fill="#20343F"></path>
                    <path d="M210.77,62.639 C210.53,62.725 210.18,62.835 209.73,62.969 C209.29,63.105 208.74,63.237 208.1,63.364 C207.46,63.492 206.73,63.602 205.9,63.695 C205.08,63.787 204.17,63.834 203.17,63.834 C201.22,63.834 199.56,63.635 198.17,63.237 C196.78,62.838 195.64,62.294 194.75,61.604 C193.86,60.914 193.21,60.093 192.79,59.139 C192.37,58.186 192.16,57.154 192.16,56.045 C192.16,54.935 192.37,53.904 192.79,52.951 C193.21,51.997 193.86,51.176 194.75,50.486 C195.64,49.796 196.78,49.252 198.17,48.853 C199.56,48.455 201.22,48.256 203.17,48.256 C204.17,48.256 205.08,48.303 205.9,48.395 C206.73,48.487 207.46,48.597 208.1,48.725 C208.74,48.853 209.29,48.985 209.73,49.12 C210.18,49.255 210.53,49.365 210.77,49.45 L210.04,52.332 C208.96,52.019 207.86,51.759 206.74,51.553 C205.61,51.347 204.42,51.244 203.17,51.244 C201.76,51.244 200.57,51.361 199.59,51.595 C198.61,51.831 197.8,52.161 197.19,52.588 C196.57,53.015 196.12,53.524 195.84,54.113 C195.56,54.704 195.43,55.348 195.43,56.045 C195.43,56.757 195.56,57.403 195.84,57.987 C196.12,58.57 196.57,59.075 197.19,59.502 C197.8,59.929 198.61,60.259 199.59,60.494 C200.57,60.729 201.76,60.846 203.17,60.846 C204.42,60.846 205.61,60.743 206.74,60.537 C207.86,60.331 208.96,60.071 210.04,59.758 L210.77,62.639" id="Fill-95" fill="#20343F"></path>
                    <polyline id="Fill-96" fill="#20343F" points="234.99 63.514 234.99 57.325 223.89 57.325 223.89 63.514 220.69 63.514 220.69 48.576 223.89 48.576 223.89 54.337 234.99 54.337 234.99 48.576 238.19 48.576 238.19 63.514 234.99 63.514"></polyline>
                </g>
            </g>
        </g>
    </g>
</svg>