<?xml version="1.0" encoding="UTF-8" standalone="no"?>
<svg width="169px" height="110px" viewBox="0 0 169 110" version="1.1" xmlns="http://www.w3.org/2000/svg" xmlns:xlink="http://www.w3.org/1999/xlink">
    <!-- Generator: Sketch 3.7.2 (28276) - http://www.bohemiancoding.com/sketch -->
    <title>Standard</title>
    <desc>Created with Sketch.</desc>
    <defs></defs>
    <g id="Page-1" stroke="none" stroke-width="1" fill="none" fill-rule="evenodd">
        <g id="landmark" transform="translate(-711.000000, -35.000000)">
            <g id="Page-1">
                <g id="Standard" transform="translate(711.000000, 35.000000)">
                    <polyline id="Fill-49" fill="#F0A830" points="82.295 40.888 82.295 13.562 77.354 8.621 77.354 45.828 82.295 40.888"></polyline>
                    <path d="M83.329,12.521 L89.67,12.521 C89.67,9.792 87.458,7.58 84.729,7.58 L78.388,7.58 L83.329,12.521" id="Fill-50" fill="#F0A830"></path>
                    <path d="M74.186,7.58 L67.977,7.58 C65.248,7.58 63.036,9.792 63.036,12.521 L69.246,12.521 L74.186,7.58" id="Fill-51" fill="#F0A830"></path>
                    <path d="M84.7,5.44 L67.977,5.44 C65.248,5.44 63.036,3.229 63.036,0.5 L89.64,0.5 C89.64,3.229 87.428,5.44 84.7,5.44" id="Fill-52" fill="#F0A830"></path>
                    <polyline id="Fill-53" fill="#F0A830" points="75.214 45.822 75.214 8.627 70.274 13.568 70.274 40.882 75.214 45.822"></polyline>
                    <path d="M69.236,41.919 L63.036,41.919 C63.036,44.648 65.248,46.86 67.977,46.86 L74.177,46.86 L69.236,41.919" id="Fill-54" fill="#F0A830"></path>
                    <polyline id="Fill-55" fill="#F0A830" points="93.063 41.919 83.339 41.919 78.398 46.86 98.004 46.86 93.063 41.919"></polyline>
                    <path d="M99.034,45.814 L99.034,38.364 C99.034,35.635 96.821,33.423 94.093,33.423 L94.093,40.873 L99.034,45.814" id="Fill-56" fill="#F0A830"></path>
                    <path d="M100.144,48.999 L67.977,48.999 C65.248,48.999 63.036,51.211 63.036,53.94 L105.084,53.94 L100.144,48.999" id="Fill-57" fill="#F0A830"></path>
                    <path d="M106.085,52.865 L106.085,33.423 C103.356,33.423 101.144,35.635 101.144,38.364 L101.144,47.924 L106.085,52.865" id="Fill-58" fill="#F0A830"></path>
                    <polyline id="Fill-59" fill="#20343F" points="4.614 69.541 4.614 83.999 15.089 83.999 15.089 87.354 0.713 87.354 0.713 69.541 4.614 69.541"></polyline>
                    <path d="M25.329,80.507 L30.894,80.507 L28.193,74.205 L28.03,74.205 L25.329,80.507 L25.329,80.507 Z M26.529,69.541 L29.885,69.541 L38.15,87.354 L33.868,87.354 L32.231,83.59 L23.992,83.59 L22.383,87.354 L18.264,87.354 L26.529,69.541 L26.529,69.541 Z" id="Fill-60" fill="#20343F"></path>
                    <polyline id="Fill-61" fill="#20343F" points="57.731 69.541 57.731 87.354 54.348 87.354 45.291 76.333 45.264 76.333 45.264 87.354 41.336 87.354 41.336 69.541 44.691 69.541 53.775 80.589 53.803 80.589 53.803 69.541 57.731 69.541"></polyline>
                    <path d="M70.414,83.999 C72.46,83.999 73.306,83.535 74.233,82.717 C75.27,81.68 75.87,80.261 75.87,78.461 C75.87,76.77 75.351,75.351 74.369,74.342 C73.469,73.441 72.515,72.923 70.414,72.923 L66.076,72.923 L66.076,83.999 L70.414,83.999 L70.414,83.999 Z M62.175,87.354 L62.175,69.541 L70.551,69.541 C73.824,69.541 75.952,70.468 77.534,72.078 C79.089,73.687 79.935,75.924 79.935,78.434 C79.935,81.025 79.035,83.371 77.371,85.008 C75.843,86.454 73.906,87.354 70.551,87.354 L62.175,87.354 L62.175,87.354 Z" id="Fill-62" fill="#20343F"></path>
                    <polyline id="Fill-63" fill="#20343F" points="98.834 87.354 98.834 77.015 98.697 77.015 93.705 85.336 92.614 85.336 87.622 77.015 87.486 77.015 87.486 87.354 83.693 87.354 83.693 69.541 87.431 69.541 93.269 79.307 93.323 79.307 99.134 69.541 102.762 69.541 102.762 87.354 98.834 87.354"></polyline>
                    <path d="M113.002,80.507 L118.567,80.507 L115.867,74.205 L115.703,74.205 L113.002,80.507 L113.002,80.507 Z M114.203,69.541 L117.558,69.541 L125.824,87.354 L121.541,87.354 L119.904,83.59 L111.666,83.59 L110.056,87.354 L105.937,87.354 L114.203,69.541 L114.203,69.541 Z" id="Fill-64" fill="#20343F"></path>
                    <path d="M132.9,72.841 L132.9,77.506 L139.283,77.506 C140.647,77.506 141.765,76.524 141.765,75.16 C141.765,74.56 141.547,74.015 141.138,73.605 C140.51,72.923 139.72,72.841 139.01,72.841 L132.9,72.841 L132.9,72.841 Z M128.998,87.354 L128.998,69.541 L138.874,69.541 C141.41,69.541 143.075,70.277 144.221,71.477 C145.148,72.459 145.693,73.741 145.693,75.16 C145.693,77.452 144.275,79.225 142.093,80.18 L146.266,87.354 L141.793,87.354 L138.192,80.807 L132.9,80.807 L132.9,87.354 L128.998,87.354 L128.998,87.354 Z" id="Fill-65" fill="#20343F"></path>
                    <polyline id="Fill-66" fill="#20343F" points="154.005 77.288 162.161 69.541 167.072 69.541 159.652 76.497 168.408 87.354 163.471 87.354 156.869 79.061 154.005 81.762 154.005 87.354 150.076 87.354 150.076 69.541 154.005 69.541 154.005 77.288"></polyline>
                    <path d="M42.773,108.647 C42.6,108.708 42.354,108.787 42.034,108.883 C41.714,108.98 41.326,109.074 40.869,109.165 C40.413,109.256 39.89,109.335 39.301,109.401 C38.712,109.467 38.063,109.5 37.352,109.5 C35.961,109.5 34.771,109.357 33.781,109.074 C32.792,108.789 31.98,108.401 31.345,107.908 C30.711,107.416 30.244,106.83 29.945,106.15 C29.645,105.47 29.495,104.734 29.495,103.942 C29.495,103.15 29.645,102.415 29.945,101.735 C30.244,101.054 30.711,100.468 31.345,99.976 C31.98,99.484 32.792,99.095 33.781,98.811 C34.771,98.527 35.961,98.385 37.352,98.385 C38.063,98.385 38.712,98.418 39.301,98.484 C39.89,98.55 40.413,98.628 40.869,98.72 C41.326,98.811 41.714,98.905 42.034,99.001 C42.354,99.098 42.6,99.176 42.773,99.237 L42.255,101.293 C41.483,101.07 40.697,100.885 39.895,100.737 C39.093,100.59 38.245,100.516 37.352,100.516 C36.347,100.516 35.495,100.6 34.794,100.767 C34.094,100.935 33.523,101.171 33.081,101.476 C32.64,101.78 32.32,102.143 32.122,102.564 C31.924,102.985 31.825,103.445 31.825,103.942 C31.825,104.45 31.924,104.912 32.122,105.328 C32.32,105.744 32.64,106.104 33.081,106.409 C33.523,106.713 34.094,106.949 34.794,107.117 C35.495,107.284 36.347,107.368 37.352,107.368 C38.245,107.368 39.093,107.294 39.895,107.148 C40.697,107 41.483,106.815 42.255,106.592 L42.773,108.647" id="Fill-67" fill="#20343F"></path>
                    <polyline id="Fill-68" fill="#20343F" points="60.054 109.271 60.054 104.856 52.136 104.856 52.136 109.271 49.852 109.271 49.852 98.613 52.136 98.613 52.136 102.724 60.054 102.724 60.054 98.613 62.338 98.613 62.338 109.271 60.054 109.271"></polyline>
                    <path d="M79.395,98.613 L81.679,98.613 L81.679,105.008 C81.679,106.581 81.146,107.724 80.08,108.434 C79.014,109.144 77.415,109.5 75.284,109.5 C73.152,109.5 71.553,109.144 70.488,108.434 C69.422,107.724 68.889,106.581 68.889,105.008 L68.889,98.613 L71.173,98.613 L71.173,105.008 C71.173,105.506 71.277,105.907 71.485,106.211 C71.693,106.516 71.979,106.754 72.345,106.926 C72.711,107.099 73.145,107.216 73.647,107.277 C74.15,107.338 74.695,107.368 75.284,107.368 C75.872,107.368 76.418,107.338 76.92,107.277 C77.423,107.216 77.857,107.099 78.223,106.926 C78.588,106.754 78.874,106.516 79.083,106.211 C79.291,105.907 79.395,105.506 79.395,105.008 L79.395,98.613" id="Fill-69" fill="#20343F"></path>
                    <path d="M96.694,103.333 C97.192,103.333 97.6,103.237 97.92,103.044 C98.24,102.851 98.4,102.516 98.4,102.039 C98.4,101.562 98.24,101.227 97.92,101.034 C97.6,100.841 97.192,100.744 96.694,100.744 L90.452,100.744 L90.452,103.333 L96.694,103.333 L96.694,103.333 Z M88.168,98.613 L96.618,98.613 C97.187,98.613 97.722,98.671 98.225,98.788 C98.727,98.905 99.163,99.098 99.534,99.367 C99.904,99.636 100.197,99.989 100.41,100.425 C100.623,100.862 100.73,101.399 100.73,102.039 C100.73,102.668 100.623,103.196 100.41,103.622 C100.197,104.049 99.904,104.394 99.534,104.658 C99.163,104.922 98.73,105.11 98.232,105.221 C97.735,105.333 97.207,105.389 96.649,105.389 L96.512,105.389 L101.186,109.271 L97.654,109.271 L93.299,105.465 L90.452,105.465 L90.452,109.271 L88.168,109.271 L88.168,98.613 L88.168,98.613 Z" id="Fill-70" fill="#20343F"></path>
                    <path d="M120.061,108.647 C119.889,108.708 119.642,108.787 119.322,108.883 C119.003,108.98 118.615,109.074 118.158,109.165 C117.701,109.256 117.178,109.335 116.59,109.401 C116.001,109.467 115.351,109.5 114.641,109.5 C113.25,109.5 112.06,109.357 111.07,109.074 C110.081,108.789 109.268,108.401 108.634,107.908 C108,107.416 107.532,106.83 107.233,106.15 C106.934,105.47 106.784,104.734 106.784,103.942 C106.784,103.15 106.934,102.415 107.233,101.735 C107.532,101.054 108,100.468 108.634,99.976 C109.268,99.484 110.081,99.095 111.07,98.811 C112.06,98.527 113.25,98.385 114.641,98.385 C115.351,98.385 116.001,98.418 116.59,98.484 C117.178,98.55 117.701,98.628 118.158,98.72 C118.615,98.811 119.003,98.905 119.322,99.001 C119.642,99.098 119.889,99.176 120.061,99.237 L119.544,101.293 C118.772,101.07 117.985,100.885 117.183,100.737 C116.381,100.59 115.534,100.516 114.641,100.516 C113.636,100.516 112.783,100.6 112.082,100.767 C111.382,100.935 110.811,101.171 110.37,101.476 C109.928,101.78 109.608,102.143 109.41,102.564 C109.213,102.985 109.113,103.445 109.113,103.942 C109.113,104.45 109.213,104.912 109.41,105.328 C109.608,105.744 109.928,106.104 110.37,106.409 C110.811,106.713 111.382,106.949 112.082,107.117 C112.783,107.284 113.636,107.368 114.641,107.368 C115.534,107.368 116.381,107.294 117.183,107.148 C117.985,107 118.772,106.815 119.544,106.592 L120.061,108.647" id="Fill-71" fill="#20343F"></path>
                    <polyline id="Fill-72" fill="#20343F" points="137.341 109.271 137.341 104.856 129.424 104.856 129.424 109.271 127.141 109.271 127.141 98.613 129.424 98.613 129.424 102.724 137.341 102.724 137.341 98.613 139.626 98.613 139.626 109.271 137.341 109.271"></polyline>
                </g>
            </g>
        </g>
    </g>
</svg>